<?xml version="1.0" encoding="UTF-8"?>
<!DOCTYPE svg PUBLIC "-//W3C//DTD SVG 1.1//EN" "http://www.w3.org/Graphics/SVG/1.1/DTD/svg11.dtd">
<!-- Creator: Vassiliy Smith -->
<svg xmlns="http://www.w3.org/2000/svg" xml:space="preserve" width="100%" height="100%" version="1.1" style="shape-rendering:geometricPrecision; text-rendering:geometricPrecision; image-rendering:optimizeQuality; fill-rule:evenodd; clip-rule:evenodd"
viewBox="0 25000 100000 100000"
 xmlns:xlink="http://www.w3.org/1999/xlink">
 <defs>
  <style type="text/css">
   <![CDATA[
    .fil1 {fill:#ff96e1}
    .fil0 {fill:rgb(0,0,0)}
    .fil2 {fill:rgb(250,250,250)}
   ]]>
  </style>
 </defs>
 <g id="Слой_x0020_1">
  <metadata id="CorelCorpID_0Corel-Layer"/>
  <path class="fil0" d="M60484 46551c203,-167 458,-271 754,-280 535,-17 934,263 1161,666 6,-8 12,-16 19,-24 445,-544 869,-1104 1301,-1658 666,-853 1336,-1703 2016,-2545 -394,-574 -788,-1148 -1182,-1722 -402,-586 -338,-1344 208,-1814 628,-542 1543,-406 2013,279 252,367 504,734 756,1101 21,-25 43,-50 65,-75 659,-758 1403,-1574 2232,-2145 738,-509 1644,-816 2489,-332 807,462 1040,1362 1089,2226 41,710 -18,1421 -77,2128 -7,85 -14,170 -22,254 249,-364 484,-741 693,-1124 489,-896 908,-1847 1230,-2816 72,-215 149,-427 251,-629 71,-141 154,-273 258,-392 321,-370 803,-561 1290,-483 322,51 607,200 821,444 208,-407 628,-693 1121,-766 1170,-173 2341,-347 3511,-521 868,-129 1709,450 1912,1301 114,473 6,955 -288,1342 -986,1295 -1972,2591 -2958,3887 193,-29 387,-57 580,-85 678,-97 1356,-191 2036,-273 524,-63 1049,-126 1577,-148 778,-33 1479,476 1513,1288 33,811 -622,1377 -1400,1409 -457,19 -913,77 -1366,132 -410,49 -819,103 -1228,160 4731,-448 10459,-365 12692,2500 528,677 832,1465 918,2318 78,775 -390,1504 -1198,1585 -808,81 -1411,-541 -1489,-1315 -35,-346 -146,-653 -360,-928 -1276,-1636 -5526,-1693 -7427,-1643 -2583,68 -5153,403 -7703,808 -102,16 -204,33 -307,49 -31,776 -66,1553 -102,2329 -147,3114 -327,6228 -614,9333 -116,1263 -250,2524 -431,3779 -135,932 -287,1875 -548,2781 -42,147 -100,291 -168,428 -310,626 -886,1093 -1620,1002 -485,-61 -930,-281 -1144,-744 -253,-549 -39,-1151 212,-1657 89,-180 277,-484 340,-668 69,-513 181,-1017 255,-1529 175,-1209 303,-2424 416,-3640 283,-3065 460,-6138 605,-9212 27,-583 53,-1167 78,-1750 -14619,2514 -29029,6380 -42956,11486 40,792 81,1584 124,2376 41,777 -460,1484 -1271,1527 -811,43 -1384,-606 -1426,-1383 -27,-510 -54,-1020 -80,-1530 -2399,911 -4783,1859 -7153,2845 -781,325 -1711,-3 -1946,-853 -202,-729 250,-1366 909,-1640 2664,-1108 5348,-2170 8049,-3185 -52,-1075 -102,-2150 -150,-3225 -13,-288 -26,-576 -39,-863 -62,110 -125,220 -189,329 84,681 167,1362 251,2043 72,586 -191,1137 -727,1401 -676,332 -1473,64 -1803,-560 -41,33 -81,65 -122,96 -873,665 -1929,1184 -3018,1357 -649,103 -1334,80 -1948,-141 -583,1120 -1403,2115 -2427,2862 -628,459 -1365,843 -2131,999 -824,169 -1706,60 -2329,-554 -507,-500 -684,-1188 -608,-1882 78,-710 301,-1370 658,-1988 80,-139 165,-273 255,-403 -698,283 -1503,62 -1826,-659 -332,-740 68,-1511 776,-1829 1278,-573 2521,-1207 3718,-1935 106,-65 220,-117 338,-157 331,-112 692,-120 1030,-31 575,152 1014,560 1211,1060 524,-1065 1420,-1976 2321,-2693 1174,-935 3017,-1594 4448,-874 248,124 474,276 674,453 178,-386 348,-777 510,-1171 -44,-20 -88,-43 -131,-69 -989,-596 -868,-2102 301,-2475 197,-62 394,-125 591,-188 23,-1046 62,-2092 137,-3136 57,-802 176,-1645 436,-2408 105,-306 237,-611 424,-876 356,-504 909,-815 1537,-722 1151,172 1402,1319 1399,2292 -4,1052 -201,2139 -418,3166 -43,203 -90,406 -141,609 445,-141 889,-283 1334,-424 736,-235 1546,72 1794,839 24,75 41,150 52,224 854,-252 1761,-271 2545,123 60,30 119,62 176,96 118,-184 257,-354 428,-506 485,-434 1071,-595 1680,-766 896,-251 1775,-578 2619,-971 793,-369 1773,-254 2312,488 407,559 397,1270 71,1865 -499,907 -1099,1462 -1914,2075 -208,156 -419,313 -611,489 -169,154 -371,352 -546,563 554,-123 1147,-395 1609,-641 506,-270 995,-581 1467,-910 -2,-73 -2,-146 0,-218 41,-1520 1389,-3364 2449,-4393 597,-579 1306,-1148 2073,-1481 817,-355 1792,-431 2471,254 591,598 605,1440 328,2187 -243,659 -689,1277 -1139,1811 -479,568 -1015,1105 -1575,1614 44,-25 87,-52 129,-78 1493,-936 2489,-2581 2968,-4247 220,-765 437,-1532 649,-2300 37,-132 73,-265 110,-397 50,-185 101,-370 152,-556l14 -49c14,-87 30,-174 45,-261 33,-189 68,-378 103,-567 -722,132 -1444,265 -2166,397 -753,139 -1505,-279 -1653,-1058 -159,-830 458,-1467 1238,-1611 1060,-194 2120,-389 3180,-583 79,-343 160,-685 244,-1027 237,-969 484,-1936 776,-2890 245,-801 1094,-1317 1899,-956 690,309 893,1062 683,1746 -262,856 -485,1724 -699,2593 957,-175 1914,-351 2871,-527 781,-143 1647,188 1803,1044 153,845 -522,1466 -1297,1609 -1342,246 -2684,492 -4026,739 -106,518 -205,1038 -297,1560 -274,1557 -520,3200 -499,4784 4,313 58,1293 230,1654 113,-39 272,-152 332,-202 426,-350 735,-919 921,-1430 266,-731 1004,-1186 1767,-909 519,189 812,629 862,1122zm-521 1668c-332,613 -762,1176 -1293,1618 721,-175 1442,-346 2165,-513 -527,-161 -796,-606 -872,-1105zm2113 820c167,-38 334,-76 501,-114 -12,-9 -25,-19 -37,-29 -72,-59 -136,-123 -191,-190 -77,124 -168,236 -273,333zm16177 -9774c-15,1003 -35,2006 -59,3008 739,-971 1479,-1942 2218,-2913 -349,52 -697,103 -1045,155 -407,60 -808,-32 -1114,-250zm-152 6293c-4,134 -8,268 -13,402 256,-41 529,-83 816,-127 -305,-37 -576,-133 -803,-275zm-22355 5005c-140,-45 -277,-101 -408,-168 -611,-316 -1001,-847 -1248,-1458 -654,875 -1449,1639 -2382,2224 -794,498 -1710,871 -2649,958 -798,73 -1616,-71 -2277,-522 -466,314 -947,609 -1442,873 -923,491 -1996,925 -3046,1010 -609,49 -1239,-30 -1761,-309 66,431 -67,855 -389,1157 -685,641 -1841,434 -2190,-413 -355,339 -740,646 -1155,913 -727,468 -1568,821 -2433,912 -823,86 -1664,-76 -2319,-594 5,104 9,208 14,313 35,788 72,1577 109,2365 7729,-2804 15602,-5231 23576,-7261zm-23237 -1092c-222,71 -445,142 -667,213 4,207 10,413 17,620 194,-292 414,-570 650,-833zm32120 -998c1596,-344 3195,-673 4798,-985 -332,-100 -634,-321 -840,-623 -419,-610 -838,-1220 -1256,-1830 -499,625 -992,1253 -1484,1883 -406,519 -804,1043 -1218,1555zm5988 -1214c1582,-301 3167,-586 4754,-855 25,-710 48,-1420 69,-2131 -109,157 -220,313 -333,466 -713,973 -1865,2401 -3245,1978 -328,-101 -586,-280 -784,-510 18,393 -115,776 -461,1052zm-57 -2290c-3,-17 -5,-33 -7,-50 -62,-452 -49,-914 -24,-1368 25,-474 69,-946 108,-1419 28,-341 59,-687 73,-1033 -384,362 -743,768 -1079,1153 -175,201 -348,403 -520,606 483,704 966,1407 1449,2111zm-50763 12002c-376,532 -799,1023 -1250,1512 -437,473 -954,987 -1277,1546 -50,88 -95,176 -135,266 222,-105 437,-241 615,-371 982,-717 1683,-1795 2047,-2953zm-6399 -6045c-171,2145 -290,4294 -319,6445 -29,2118 37,4236 179,6349 16,251 34,501 53,752 57,776 -429,1493 -1239,1552 -809,60 -1397,-579 -1454,-1353 -19,-257 -37,-514 -54,-771 -147,-2185 -215,-4375 -185,-6565 24,-1715 102,-3429 218,-5140 -616,283 -1230,567 -1843,855 -454,214 -908,429 -1359,651 -229,113 -466,223 -685,355 -725,436 -1693,250 -2051,-557 -307,-690 47,-1389 658,-1756 286,-172 586,-317 885,-464 465,-229 934,-452 1404,-673 1075,-505 2155,-1000 3237,-1490 2,-23 5,-46 7,-69 52,-571 370,-1074 931,-1259 464,-153 987,-39 1349,289 3,3 5,5 8,8 829,-369 1659,-735 2492,-1094 474,-205 948,-408 1427,-601 150,-60 301,-120 454,-173 77,-27 154,-51 233,-70 636,-152 1417,19 1705,672 212,482 39,980 -302,1348 -343,369 -853,633 -1313,822 -466,192 -928,391 -1390,592 -1018,441 -2033,891 -3046,1345zm12947 3507c-24,-218 -64,-483 -168,-669 64,-549 -13,-1032 -336,-908 -547,208 -1631,818 -2353,1517 -722,700 -1134,1908 -1134,1908 0,0 163,-42 418,-113l-83 359c-6,28 -12,55 -19,83 0,25 1,63 6,91 141,64 496,34 618,15 639,-101 1293,-447 1803,-837 469,-358 905,-930 1248,-1446zm10963 -4122c-20,-99 -48,-202 -90,-291 57,-536 -23,-998 -340,-877 -547,209 -1631,818 -2353,1518 -722,699 -1134,1907 -1134,1907 0,0 148,-38 384,-104 -37,126 -59,250 -61,373 0,42 2,145 21,197 83,35 278,28 350,20 432,-45 891,-263 1252,-496 486,-313 908,-711 1268,-1161 148,-96 256,-192 307,-285 58,-106 111,-236 156,-377 85,-139 165,-280 240,-424z"/>
  <path class="fil1" d="M59460 45527c203,-167 459,-271 755,-280 534,-17 934,263 1160,666 6,-8 13,-16 19,-24 445,-543 869,-1104 1301,-1657 667,-853 1336,-1704 2016,-2546 -394,-574 -788,-1148 -1182,-1722 -402,-586 -337,-1344 208,-1814 628,-541 1543,-406 2014,279 252,367 503,734 755,1101 22,-25 43,-50 65,-75 660,-757 1403,-1573 2232,-2144 739,-509 1644,-817 2489,-333 808,462 1040,1363 1090,2227 40,709 -19,1421 -78,2127 -7,85 -14,170 -21,255 248,-365 483,-741 692,-1125 489,-896 908,-1847 1231,-2816 71,-214 148,-427 250,-629 71,-140 155,-273 258,-392 321,-370 803,-560 1291,-483 321,51 607,200 821,444 207,-407 627,-692 1121,-765 1170,-174 2340,-348 3510,-521 869,-129 1709,450 1913,1300 113,474 6,956 -288,1342 -987,1296 -1973,2591 -2959,3887 194,-29 387,-57 581,-84 677,-98 1356,-191 2035,-273 525,-64 1050,-127 1578,-149 778,-32 1478,477 1512,1288 34,812 -622,1377 -1400,1410 -456,19 -913,77 -1366,131 -409,50 -818,104 -1227,160 4731,-447 10458,-365 12692,2500 528,678 832,1465 917,2318 78,775 -389,1504 -1198,1585 -808,81 -1411,-540 -1488,-1315 -35,-346 -146,-653 -361,-928 -1275,-1636 -5525,-1693 -7426,-1643 -2584,68 -5154,403 -7703,808 -103,17 -205,33 -307,49 -32,777 -66,1553 -103,2329 -146,3115 -327,6228 -613,9333 -117,1263 -251,2524 -432,3779 -135,933 -287,1875 -548,2781 -42,148 -99,291 -167,429 -311,626 -887,1092 -1620,1001 -486,-60 -931,-280 -1144,-744 -254,-549 -39,-1151 211,-1656 89,-181 277,-484 340,-669 70,-513 182,-1017 256,-1528 175,-1209 303,-2425 415,-3641 283,-3064 461,-6138 605,-9212 28,-583 54,-1166 78,-1750 -14619,2514 -29029,6380 -42955,11486 40,792 81,1584 123,2376 41,778 -460,1484 -1271,1527 -811,44 -1384,-606 -1425,-1383 -28,-510 -54,-1020 -80,-1529 -2399,910 -4784,1859 -7153,2844 -782,325 -1712,-2 -1947,-853 -202,-729 250,-1366 910,-1640 2664,-1108 5347,-2170 8048,-3184 -52,-1076 -102,-2151 -150,-3226 -13,-288 -26,-575 -38,-863 -62,110 -126,220 -190,329 84,681 168,1363 251,2044 72,585 -190,1137 -727,1400 -676,332 -1473,64 -1803,-560 -40,33 -81,65 -122,96 -872,666 -1929,1184 -3018,1357 -649,103 -1334,80 -1948,-140 -583,1120 -1403,2114 -2426,2862 -628,458 -1366,842 -2132,999 -824,168 -1706,59 -2329,-555 -507,-499 -684,-1188 -608,-1882 78,-710 301,-1370 658,-1988 80,-139 166,-273 255,-403 -698,283 -1502,62 -1826,-659 -332,-740 69,-1511 777,-1829 1277,-573 2520,-1207 3717,-1934 106,-65 220,-118 338,-158 332,-112 692,-119 1030,-30 575,151 1015,559 1211,1059 524,-1065 1421,-1976 2321,-2693 1175,-935 3018,-1594 4449,-874 248,125 473,276 674,454 177,-387 347,-778 510,-1171 -45,-21 -89,-44 -131,-69 -989,-597 -869,-2103 300,-2475 197,-63 394,-126 591,-189 23,-1046 63,-2092 137,-3136 57,-802 176,-1645 437,-2407 104,-307 236,-611 424,-877 355,-504 908,-814 1536,-721 1152,171 1402,1318 1399,2291 -4,1052 -201,2139 -418,3166 -43,204 -90,407 -140,609 444,-141 888,-283 1333,-424 736,-235 1546,72 1794,839 24,76 42,151 53,224 853,-252 1761,-271 2544,123 60,31 119,62 177,96 117,-183 257,-353 427,-506 485,-433 1071,-595 1680,-766 897,-251 1775,-578 2619,-971 794,-369 1773,-254 2312,488 407,560 398,1271 71,1865 -499,908 -1098,1462 -1914,2075 -207,157 -419,313 -611,489 -168,154 -371,353 -545,563 553,-123 1147,-395 1608,-641 506,-270 995,-580 1468,-909 -2,-73 -3,-146 -1,-219 41,-1519 1390,-3363 2450,-4393 596,-579 1306,-1147 2072,-1481 818,-355 1792,-431 2471,255 592,597 605,1440 329,2186 -244,659 -690,1278 -1140,1812 -478,567 -1014,1105 -1575,1614 44,-26 87,-52 129,-79 1493,-936 2489,-2581 2969,-4247 220,-765 436,-1532 649,-2300 36,-132 73,-264 109,-397 51,-185 102,-370 152,-555l14 -50c15,-87 30,-174 45,-261 34,-189 68,-378 103,-567 -722,133 -1444,265 -2166,398 -753,138 -1504,-280 -1653,-1058 -159,-831 458,-1468 1239,-1611 1059,-195 2119,-390 3179,-584 79,-343 161,-685 244,-1026 238,-969 485,-1937 777,-2891 245,-801 1093,-1317 1898,-956 690,309 893,1062 684,1746 -262,856 -485,1724 -699,2594 956,-176 1913,-352 2870,-527 782,-144 1647,187 1803,1044 154,844 -521,1466 -1297,1608 -1342,246 -2683,493 -4025,739 -106,519 -206,1039 -298,1560 -274,1558 -520,3201 -499,4785 4,312 58,1293 231,1653 112,-39 271,-152 332,-201 425,-351 735,-920 921,-1431 265,-731 1003,-1186 1766,-908 519,188 812,629 862,1121zm-521 1668c-332,613 -762,1176 -1293,1618 721,-174 1443,-345 2165,-513 -527,-161 -796,-605 -872,-1105zm2113 820c167,-38 335,-76 502,-113 -13,-10 -25,-20 -38,-30 -72,-59 -135,-122 -191,-190 -76,124 -168,237 -273,333zm16177 -9774c-15,1003 -35,2006 -58,3009 739,-971 1478,-1943 2217,-2914 -348,52 -697,104 -1045,155 -407,61 -808,-31 -1114,-250zm-151 6293c-5,134 -9,268 -13,402 256,-41 528,-83 816,-127 -306,-37 -576,-133 -803,-275zm-22356 5005c-140,-44 -277,-100 -407,-168 -612,-316 -1001,-847 -1249,-1457 -653,874 -1449,1639 -2381,2223 -794,498 -1711,871 -2650,958 -797,74 -1616,-71 -2276,-522 -467,314 -947,609 -1442,873 -923,492 -1997,925 -3046,1010 -610,49 -1239,-30 -1762,-309 66,431 -66,856 -389,1157 -685,641 -1841,435 -2190,-413 -354,340 -740,646 -1155,914 -727,468 -1568,821 -2433,911 -822,86 -1664,-76 -2319,-594 5,104 10,209 14,313 36,789 72,1577 109,2366 7729,-2805 15603,-5231 23576,-7262zm-23236 -1092c-223,71 -446,142 -668,213 5,207 10,414 17,620 195,-291 415,-569 651,-833zm32119 -997c1596,-345 3196,-673 4798,-986 -332,-99 -633,-321 -840,-622 -419,-610 -837,-1220 -1256,-1830 -498,624 -992,1252 -1484,1882 -405,519 -804,1043 -1218,1556zm5989 -1215c1582,-300 3166,-585 4753,-854 25,-711 48,-1421 69,-2132 -109,158 -220,313 -332,467 -714,972 -1866,2400 -3245,1977 -329,-100 -587,-280 -785,-510 18,394 -115,776 -460,1052zm-58 -2290c-2,-16 -5,-33 -7,-49 -61,-453 -49,-914 -24,-1369 25,-474 69,-946 108,-1418 29,-342 59,-688 73,-1034 -383,363 -743,768 -1079,1154 -175,200 -348,402 -519,605 482,704 965,1407 1448,2111zm-50763 12002c-376,532 -799,1023 -1250,1512 -437,473 -954,987 -1276,1546 -51,88 -96,176 -135,266 222,-105 436,-241 614,-371 982,-717 1683,-1795 2047,-2953zm-6398 -6045c-172,2145 -290,4294 -320,6446 -28,2117 37,4236 179,6348 17,251 34,501 53,752 57,776 -429,1493 -1239,1553 -809,60 -1397,-580 -1454,-1354 -19,-257 -37,-513 -54,-770 -146,-2185 -214,-4376 -184,-6566 23,-1715 101,-3428 217,-5139 -615,282 -1230,566 -1842,854 -455,214 -909,429 -1359,651 -230,113 -467,223 -686,355 -725,437 -1693,250 -2051,-557 -306,-690 47,-1388 658,-1756 286,-172 586,-316 885,-464 465,-229 935,-452 1404,-672 1076,-506 2156,-1001 3238,-1491 2,-23 4,-46 6,-69 52,-571 370,-1074 931,-1259 464,-153 988,-38 1349,289 3,3 6,5 8,8 829,-369 1659,-734 2492,-1094 474,-204 948,-408 1427,-600 150,-61 301,-121 454,-174 77,-27 154,-51 233,-70 637,-152 1417,19 1705,673 213,482 40,980 -302,1348 -342,368 -853,632 -1313,822 -465,191 -928,391 -1390,591 -1018,441 -2033,891 -3045,1345zm12947 3507c-36,-318 -105,-737 -356,-863 -2,-1 -5,-2 -7,-3 -376,-139 -1261,351 -1546,578 -543,431 -1325,1156 -1634,1887l-113 496c-7,27 -13,54 -19,82 0,25 1,63 6,92 140,63 495,34 617,14 640,-101 1293,-447 1803,-836 470,-358 905,-931 1249,-1447zm10962 -4122c-41,-202 -115,-423 -274,-504 -3,-1 -5,-2 -7,-3 -377,-139 -1261,351 -1546,578 -657,523 -1753,1549 -1767,2455 0,43 3,145 21,197 83,36 278,28 351,21 431,-46 890,-264 1252,-497 849,-547 1505,-1355 1970,-2247z"/>
  <path class="fil2" d="M11640 49384c-193,2313 -327,4632 -359,6953 -29,2143 37,4273 180,6411 17,253 35,505 54,757 67,908 -1082,993 -1149,85 -19,-255 -37,-510 -54,-765 -145,-2169 -212,-4329 -182,-6504 29,-2134 144,-4267 311,-6396 -1016,461 -2030,926 -3040,1401 -458,215 -917,433 -1372,657 -243,120 -510,246 -742,386 -759,457 -1446,-474 -594,-987 261,-157 554,-297 827,-432 461,-227 926,-448 1392,-667 1208,-567 2422,-1122 3639,-1671 15,-173 30,-346 46,-518 86,-939 1221,-707 1159,-25 1049,-470 2101,-935 3157,-1391 467,-202 936,-403 1409,-593 138,-56 278,-112 419,-160 52,-18 105,-36 159,-49 854,-204 1515,591 -385,1374 -469,193 -937,394 -1403,597 -1161,503 -2318,1017 -3472,1537zm18783 8505c14473,-5320 29492,-9316 44676,-11850 71,-1951 128,-3903 169,-5854 -188,409 -390,810 -602,1199 -345,633 -781,1294 -1207,1874 -468,638 -1464,1980 -2393,1695 -514,-157 -704,-678 -770,-1161 -53,-396 -39,-825 -18,-1223 25,-466 68,-931 107,-1396 47,-568 98,-1162 79,-1732 -4,-143 -34,-614 -125,-775 -173,31 -527,288 -632,369 -603,470 -1183,1110 -1684,1685 -306,352 -608,708 -907,1068 650,946 1300,1893 1950,2840 667,973 -358,1514 -865,776 -615,-897 -1230,-1793 -1845,-2689 -15,19 -31,38 -46,57 -708,875 -1404,1759 -2097,2645 -440,563 -876,1139 -1328,1692 -577,705 -1468,-25 -892,-730 447,-546 878,-1115 1312,-1671 697,-892 1398,-1781 2110,-2660 87,-108 174,-216 262,-323 -503,-733 -1006,-1466 -1509,-2199 -464,-675 490,-1320 944,-658 443,644 885,1289 1328,1933 236,-281 474,-560 715,-837 597,-685 1336,-1498 2087,-2016 478,-329 1107,-618 1666,-298 548,314 668,1024 701,1599 37,662 -21,1359 -76,2019 -38,454 -80,908 -105,1363 -17,320 -34,688 9,1006 5,29 12,80 23,131 348,-243 909,-971 1071,-1192 395,-538 803,-1155 1124,-1743 507,-931 951,-1937 1285,-2942 59,-176 124,-360 207,-525 42,-83 91,-163 152,-233 147,-170 358,-262 585,-226 575,91 580,740 573,1182 -38,2585 -105,5174 -199,7760 236,-38 472,-76 708,-114 4085,-649 14083,-2126 16951,1553 438,562 687,1211 758,1920 91,906 -1055,1021 -1146,115 -49,-493 -216,-936 -520,-1327 -1498,-1921 -5856,-1999 -8058,-1941 -2618,69 -5220,407 -7804,818 -311,49 -622,99 -933,150 -39,986 -82,1971 -128,2956 -146,3099 -326,6208 -611,9298 -116,1248 -248,2499 -427,3740 -128,884 -279,1818 -526,2677 -29,102 -70,204 -117,299 -158,319 -435,626 -831,577 -1315,-164 11,-1678 76,-2169 69,-523 185,-1044 258,-1549 176,-1221 307,-2453 420,-3681 284,-3072 463,-6164 607,-9246 43,-903 82,-1807 118,-2710 -15151,2543 -30135,6549 -44570,11880 49,982 100,1964 152,2946 48,910 -1102,971 -1150,62 -46,-863 -91,-1725 -134,-2587 -2745,1028 -5469,2105 -8170,3228 -817,340 -1360,-681 -442,-1063 2827,-1176 5678,-2300 8552,-3372 -62,-1263 -121,-2525 -178,-3788 -58,-1304 -114,-2608 -159,-3912 -495,1144 -1052,2269 -1643,3244 95,769 189,1538 284,2307 100,815 -1049,908 -1137,188 -44,-354 -87,-708 -131,-1063 -357,448 -721,824 -1086,1102 -768,586 -1709,1055 -2669,1207 -746,119 -1587,47 -2182,-455 -526,1307 -1388,2484 -2528,3316 -535,391 -1177,733 -1830,866 -562,115 -1199,78 -1630,-347 -337,-332 -432,-790 -382,-1246 67,-606 255,-1159 559,-1686 407,-705 980,-1294 1528,-1889 390,-422 756,-839 1080,-1297 -1067,614 -2154,1158 -3285,1666 -831,372 -1302,-678 -471,-1051 1316,-591 2570,-1231 3802,-1980 58,-35 120,-64 184,-85 189,-64 393,-66 585,-16 577,153 943,754 637,1314 -460,842 -1039,1529 -1685,2230 -481,521 -1022,1068 -1378,1684 -224,388 -362,789 -411,1236 -8,74 -16,239 45,300 112,110 459,66 592,39 485,-99 985,-379 1381,-668 1269,-927 2128,-2370 2477,-3891 24,-107 49,-214 74,-322 137,-1504 1353,-2801 2480,-3698 925,-737 2478,-1362 3618,-788 435,219 772,540 1005,969 54,99 101,201 141,304 574,-1108 1103,-2340 1549,-3522 -159,51 -319,102 -478,153 -649,206 -1067,-869 -281,-1120 373,-118 746,-237 1120,-356 20,-1217 59,-2438 145,-3651 52,-724 162,-1523 397,-2212 80,-232 183,-480 325,-681 183,-260 455,-451 789,-401 687,102 741,986 739,1523 -4,975 -200,2057 -401,3008 -117,552 -293,1215 -516,1943 900,-287 1801,-574 2701,-860 853,-272 1239,814 310,1110 -1114,354 -2228,709 -3342,1064 6,720 35,1447 59,2160 47,1405 107,2809 170,4213 51,1140 104,2279 159,3419zm-9532 -2563c7,2 13,3 20,5 -12,51 -24,103 -36,154 -1,27 -2,53 -2,80 -4,235 42,479 214,652 309,312 905,303 1304,240 769,-122 1538,-518 2152,-986 527,-402 1062,-1062 1579,-1872 -3,-25 -6,-49 -9,-74 -76,-644 -156,-1347 -799,-1671 -28,-14 -57,-26 -87,-37 -689,-255 -1765,275 -2296,698 -818,651 -1887,1700 -2040,2811zm33640 -18040c114,-505 232,-1009 355,-1511 233,-950 479,-1913 765,-2848 259,-847 1392,-615 1101,337 -279,914 -520,1857 -747,2785 -82,336 -163,673 -241,1011 1347,-247 2693,-495 4040,-742 1068,-196 1259,940 227,1130 -1513,277 -3025,555 -4538,833 -148,695 -285,1393 -408,2093 -279,1582 -532,3321 -511,4929 7,516 74,2072 624,2357 44,22 90,40 138,52 372,95 791,-142 1067,-370 537,-442 921,-1117 1156,-1763 311,-856 1394,-463 1083,393 -308,845 -806,1682 -1507,2259 -577,476 -1330,788 -2083,597 -132,-34 -261,-82 -382,-145 -945,-488 -1177,-1828 -1232,-2881 -708,1482 -1770,2804 -3165,3679 -688,432 -1494,768 -2309,843 -700,65 -1440,-71 -1977,-553 -63,-56 -120,-115 -174,-177 -604,430 -1232,834 -1860,1169 -820,436 -1811,846 -2745,921 -676,55 -1458,-73 -1847,-697 -308,-494 -226,-1081 2,-1588 285,-633 814,-1215 1322,-1680 652,-596 1269,-905 1779,-1536 -791,343 -1609,634 -2437,867 -962,269 -1018,235 -1288,1218 -122,445 -276,885 -462,1313 21,142 42,284 67,426 132,747 265,1493 397,2240 131,739 -1009,907 -1128,233 -77,-433 -154,-867 -231,-1300 -547,777 -1224,1457 -2026,1974 -623,401 -1352,715 -2094,792 -648,68 -1327,-50 -1830,-491 -487,-426 -677,-1037 -667,-1670 23,-1605 1307,-2990 2492,-3934 926,-737 2479,-1361 3618,-788 331,166 604,393 815,684 130,-445 303,-896 653,-1209 372,-332 903,-465 1373,-597 935,-262 1856,-605 2737,-1015 452,-210 1041,-196 1359,241 229,316 200,708 19,1037 -450,818 -972,1281 -1701,1830 -228,171 -457,342 -668,535 -382,349 -834,826 -1049,1303 -51,113 -151,383 -75,505 112,180 605,173 777,159 765,-61 1627,-433 2296,-790 647,-344 1296,-770 1916,-1220 -32,-186 -44,-378 -39,-571 35,-1289 1325,-2993 2215,-3857 522,-507 1170,-1034 1842,-1327 506,-220 1177,-350 1612,89 371,375 321,919 153,1374 -209,563 -622,1125 -1006,1581 -837,993 -1922,1941 -2936,2752 -139,111 -281,223 -425,335 4,4 8,7 13,11 288,259 734,298 1102,264 631,-58 1272,-338 1804,-672 1658,-1039 2768,-2837 3301,-4689 221,-768 438,-1537 651,-2307 37,-133 73,-266 110,-399 50,-185 101,-371 152,-556 3,1 6,2 8,3 22,-129 44,-256 67,-383 98,-557 205,-1114 319,-1669 -1095,201 -2190,402 -3284,603 -846,155 -1121,-965 -135,-1146 1227,-225 2454,-450 3680,-676zm-17441 12122c-82,-527 -216,-1056 -732,-1316 -28,-14 -57,-27 -87,-38 -689,-255 -1766,276 -2297,698 -876,698 -2040,1851 -2058,3050 -4,283 52,592 275,787 249,218 638,244 951,212 558,-59 1124,-315 1591,-616 1034,-666 1822,-1665 2357,-2777zm9410 -1781c938,-753 1951,-1637 2723,-2554 266,-315 544,-681 725,-1052 28,-56 82,-177 114,-284 -161,41 -368,140 -452,185 -471,251 -923,632 -1305,1002 -206,200 -401,413 -585,634 -381,457 -1022,1361 -1220,2069zm31849 -4746c821,-128 1642,-252 2465,-370 671,-96 1344,-189 2018,-271 499,-60 1015,-123 1517,-143 910,-38 958,1112 48,1150 -471,20 -959,80 -1427,137 -665,80 -1329,172 -1993,267 -836,120 -1671,246 -2506,377 -1257,196 -1819,-819 -1065,-1810 1250,-1642 2501,-3284 3751,-4927 -976,145 -1952,290 -2928,435 -901,133 -1070,-1006 -169,-1140 1170,-173 2340,-347 3511,-520 753,-112 1388,759 894,1407 -1372,1803 -2744,3606 -4116,5408zm-18634 3740c-227,1263 1006,1221 1094,223 87,-997 -1007,-1110 -1094,-223z"/>
 </g>
</svg>
