<?xml version="1.0" encoding="UTF-8"?>
<!DOCTYPE svg PUBLIC "-//W3C//DTD SVG 1.1//EN" "http://www.w3.org/Graphics/SVG/1.1/DTD/svg11.dtd">
<!-- Creator: Vassiliy Smith -->
<svg xmlns="http://www.w3.org/2000/svg" xml:space="preserve" width="200mm" height="200mm" version="1.1" style="shape-rendering:geometricPrecision; text-rendering:geometricPrecision; image-rendering:optimizeQuality; fill-rule:evenodd; clip-rule:evenodd"
viewBox="0 0 20000 20000"
 xmlns:xlink="http://www.w3.org/1999/xlink">
 <defs>
  <style type="text/css">
   <![CDATA[
    .str0 {stroke:#222123;stroke-width:7.62}
    .fil0 {fill:white}
   ]]>
  </style>
 </defs>
 <g id="Слой_x0020_1">
  <metadata id="CorelCorpID_0Corel-Layer"/>
  <path class="fil0 str0" d="M8766 10257l3428 0c1,-16 15,-29 31,-29l86 0c16,0 30,13 31,29l115 0c1,-16 15,-29 31,-29l86 0c16,0 29,13 31,29l352 0c172,0 313,141 313,313l0 1348c14,10 23,26 23,43l0 179c0,18 -9,33 -23,43l0 71c0,172 -141,313 -313,313l-4191 0c-172,0 -313,-141 -313,-313l0 -1684c0,-172 141,-313 313,-313zm9 961c107,0 194,87 194,194 0,107 -87,193 -194,193 -107,0 -194,-86 -194,-193 0,-107 87,-194 194,-194zm329 -822l3516 0 0 2032 -3516 0 0 -2032zm3929 975c24,0 44,20 44,44 0,24 -20,43 -44,43 -24,0 -44,-19 -44,-43 0,-24 20,-44 44,-44zm-178 -139l0 0c17,0 31,14 31,31l0 303c0,17 -14,31 -31,31l0 0c-18,0 -32,-14 -32,-31l0 -303c0,-17 14,-31 32,-31zm-6119 728l0 -3428c-16,-1 -29,-15 -29,-31l0 -86c0,-16 13,-30 29,-31l0 -114c-16,-2 -29,-15 -29,-32l0 -85c0,-17 13,-30 29,-31l0 -353c0,-172 141,-313 313,-313l1348 0c10,-14 25,-23 43,-23l179 0c17,0 33,9 43,23l71 0c172,0 312,141 312,313l0 2384 -139 0 0 -2046 -2031 0 0 3516 1474 0 0 631c0,6 0,13 0,19l-1300 0c-172,0 -313,-141 -313,-313zm961 -9c0,-107 87,-194 194,-194 107,0 193,87 193,194 0,107 -86,194 -193,194 -107,0 -194,-87 -194,-194zm153 -4258c0,-24 19,-44 43,-44 25,0 44,20 44,44 0,24 -19,44 -44,44 -24,0 -43,-20 -43,-44zm-139 179l0 -1c0,-17 14,-31 31,-31l303 0c17,0 31,14 31,31l0 1c0,17 -14,31 -31,31l-303 0c-17,0 -31,-14 -31,-31zm3053 1921c54,-56 109,-112 164,-169 46,-47 106,11 60,58 -78,80 -155,160 -233,239 -18,20 -40,20 -59,1 -77,-77 -154,-154 -231,-231 -46,-47 13,-106 59,-59 52,52 104,104 156,155 -54,-687 -629,-1223 -1324,-1223 -66,0 -66,-83 0,-83 743,0 1357,576 1408,1312z"/>
 </g>
</svg>
